PathFileType	4	(X/Y/Z)	C:/Users/beibeiliu/ov580/test_trc/User3\sequence.9_training_dense_right.trc
DataRate	CameraRate	NumFrames	NumMarkers	Units	OrigDataRate	OrigDataStartFrame	OrigNumFrames
120	120	18	19	mm	120	128	153
Frame#	Time	ThumbCMC			ThumbMCP			ThumbIP			ThumbTip			IndexMCP			IndexPIP			IndexTip			MiddleMCP			MiddlePIP			MiddleTip			RingMCP			RingPIP			RingTip			PinkyMCP			PinkyPIP			PinkyTip			BackHand1			BackHand2			BackHand3	
		X0	Y0	Z0	X1	Y1	Z1	X2	Y2	Z2	X3	Y3	Z3	X4	Y4	Z4	X5	Y5	Z5	X6	Y6	Z6	X7	Y7	Z7	X8	Y8	Z8	X9	Y9	Z9	X10	Y10	Z10	X11	Y11	Z11	X12	Y12	Z12	X13	Y13	Z13	X14	Y14	Z14	X15	Y15	Z15	X16	Y16	Z16	X17	Y17	Z17	X18	Y18	Z18	
127	1.05833	66.6179	-55.6689	-5.78716	50.6669	-76.5869	-25.2089	35.2482	-93.1325	-41.387	32.9089	-111.366	-59.8277	72.4506	-73.3145	-78.6998	52.2326	-99.1424	-87.3803	46.2768	-125.548	-71.1169	97.3262	-69.4573	-87.546	91.6514	-86.57	-113.446	79.7641	-108.333	-135.236	118.258	-76.4306	-77.6709	121.541	-87.9791	-104.403	119.437	-102.772	-123.338	140.348	-90.57	-58.58	145.801	-102.75	-76.9747	152.072	-114.691	-94.2008	126.865	-58.8915	-32.258	128.849	-48.604	0.920071	99.9991	-40.4395	-17.3563	
128	1.06667	63.9465	-45.4519	-0.44293	43.49	-63.1009	-15.5835	25.3438	-79.369	-34.9292	14.9395	-98.8376	-52.4946	62.2412	-71.7965	-73.0024	42.8987	-92.9596	-79.5961	27.8774	-114.349	-62.3556	90.7233	-78.1892	-79.1209	77.1275	-92.2075	-106.436	59.9461	-114.384	-126.024	108.014	-89.1856	-73.0923	105.954	-102.247	-96.3141	97.0167	-118.61	-116.648	125.1	-108.304	-50.1819	125.478	-118.401	-65.8295	124.064	-133.602	-82.3427	121.61	-70.7594	-28.6086	131.346	-58.8046	0.767569	101.679	-43.0849	-15.0238	
129	1.075	68.9495	-38.8462	-0.502057	41.644	-46.2073	-15.8802	17.7212	-54.4056	-31.7935	3.48944	-71.8135	-44.4496	56.7073	-69.9481	-69.6309	29.1437	-78.5061	-72.9247	9.81106	-93.4792	-53.5198	80.6084	-82.155	-77.7253	65.3195	-95.7545	-99.2275	39.0487	-108.126	-117.862	93.9419	-97.7888	-63.4447	88.8762	-110.165	-83.7213	74.0186	-126.519	-106.029	100.659	-113.955	-39.3042	99.1238	-135.414	-56.3424	93.3849	-151.053	-70.575	113.945	-78.7592	-21.4451	124.194	-67.3705	7.75593	104.02	-44.8967	-14.8113	
130	1.08333	77.3232	-30.4275	2.48353	45.707	-26.7118	-16.4411	22.7845	-31.4984	-32.9274	4.47661	-44.3047	-42.6148	55.2454	-59.4715	-64.6008	24.283	-58.1724	-68.7535	1.20741	-66.4137	-49.7523	70.3014	-86.6586	-71.3968	50.2912	-90.4836	-93.3557	26.1896	-95.5793	-109.56	77.0594	-102.555	-56.2625	66.1522	-111.888	-78.4544	48.9403	-122.003	-98.8574	76.3456	-116.878	-34.0456	69.6458	-133.444	-43.5475	59.5307	-149.033	-61.3611	103.399	-84.4529	-16.6106	116.179	-81.944	13.2335	104.708	-52.8629	-11.6298	
131	1.09167	83.2271	-28.1365	0.643985	58.7116	-15.393	-13.0457	33.1266	-9.46349	-34.7301	13.4653	-16.3655	-44.8922	57.6747	-48.7555	-62.0683	26.9909	-41.9901	-69.7066	3.73425	-33.4956	-49.8471	62.5914	-80.8041	-63.0796	40.4819	-81.2841	-90.1914	14.1767	-82.5699	-107.616	60.8212	-98.2774	-48.454	48.3764	-105.677	-71.8906	27.6322	-112.182	-92.0704	55.1541	-111.844	-25.5682	40.4932	-125.127	-39.36	29.4788	-138.257	-50.5622	90.5328	-87.2022	-8.71459	103.978	-87.6056	13.9467	102.9	-59.4462	-10.4186	
132	1.1	91.4792	-25.1463	3.22135	69.8318	-10.2462	-17.009	48.6743	-1.25416	-41.2501	27.7635	-5.30819	-51.1595	57.8143	-51.3445	-61.1155	31.446	-35.1164	-71.2601	10.4728	-13.4375	-51.8591	58.6022	-76.6104	-63.4394	36.8614	-75.9707	-89.3893	14.4098	-69.7829	-106.978	48.0391	-93.7414	-47.4625	36.768	-98.3241	-67.83	17.364	-98.8583	-90.9948	38.3196	-102.235	-19.5448	20.6675	-113.042	-36.898	6.27959	-119.757	-48.1985	78.5749	-92.2091	-4.43392	89.2429	-91.4276	23.628	102.224	-64.94	-3.8894	
133	1.10833	99.3535	-32.0042	0.971851	79.5416	-17.9398	-24.6909	65.7522	-6.76794	-44.6053	46.3081	-2.89465	-60.4961	66.5823	-51.142	-67.3482	45.2357	-29.8958	-77.5276	25.0572	-9.50917	-60.9411	53.7723	-81.1707	-64.5149	44.0027	-73.9671	-89.0431	20.4469	-64.9851	-112.009	42.3798	-92.2703	-46.0556	29.1095	-96.7727	-67.4429	12.2145	-96.0902	-89.0514	26.7605	-97.6327	-21.1175	8.67108	-104.698	-36.1691	-2.79122	-106.752	-49.3545	68.5834	-91.6063	-3.85508	81.4933	-91.6193	20.5483	98.8713	-71.7333	-4.01185	
134	1.11667	106.84	-46.1385	1.3159	97.679	-28.3398	-25.3094	90.2838	-14.1585	-55.3121	72.1337	-10.3888	-73.1234	78.6677	-65.3357	-67.8939	69.1935	-39.8292	-85.6586	53.5889	-11.3188	-73.3865	64.5462	-87.4631	-66.2845	52.272	-81.8241	-93.2168	33.9284	-66.6455	-120.581	48.0216	-93.6854	-49.3071	35.9109	-96.3532	-70.5057	22.061	-92.1572	-99.3555	30.5874	-90.7718	-23.255	12.2416	-96.1984	-42.8214	-2.18462	-99.4059	-55.8972	69.65	-95.2803	-0.625105	76.1459	-92.5376	28.5648	98.193	-84.7395	2.2613	
135	1.125	120.601	-61.8339	1.88132	119.892	-44.9535	-26.887	116.215	-35.5921	-57.1624	100.417	-31.6138	-75.4189	99.889	-84.3081	-64.0524	90.3198	-62.4425	-86.8566	81.5355	-32.1417	-83.9786	73.5118	-103.116	-63.9826	68.3202	-98.9652	-91.4496	60.7685	-85.7282	-118.738	55.9953	-103.556	-50.7159	46.5481	-105.658	-74.3199	36.685	-102.2	-96.1431	37.5289	-93.0608	-26.4818	18.9401	-98.5099	-44.5006	5.3608	-101.085	-59.8043	69.4449	-101.224	-0.182263	76.3975	-98.8911	32.3676	102.247	-96.4075	4.33697	
136	1.13333	131.818	-77.1088	12.0221	131.36	-67.2533	-20.5516	132.806	-60.8082	-49.1321	123.891	-57.2783	-72.436	112.073	-109.024	-54.4552	117.722	-89.4946	-81.3287	108.142	-56.7402	-84.8317	88.9277	-123.243	-55.1094	90.6833	-122.972	-82.4381	85.1182	-110.753	-113.568	67.6236	-119.13	-41.7471	62.1495	-123.725	-66.8483	56.0851	-122.965	-95.9358	49.453	-106.622	-25.1232	33.0624	-110.209	-44.4841	22.8775	-114.545	-63.4399	76.4966	-114.524	6.25146	76.6965	-104.529	38.2606	108.586	-112.498	15.3819	
137	1.14167	142.139	-85.0504	18.8844	145.281	-78.8201	-15.1643	151.47	-76.427	-45.4189	141.889	-73.1723	-65.4167	131.388	-123.351	-48.5906	136.542	-106.247	-72.7763	132.951	-77.7638	-82.8148	107.575	-138.404	-46.425	112.586	-140.733	-78.9973	112.655	-130.546	-107.676	84.5513	-136.011	-38.3847	83.5577	-142.796	-65.1834	81.6669	-141.453	-93.0058	63.505	-121.296	-25.9823	51.151	-126.213	-42.6514	36.9908	-128.449	-63.569	84.4737	-123.294	14.0735	89.0283	-114.679	41.3678	121.617	-120.067	23.5371	
138	1.15	154.078	-86.1285	24.6319	161.039	-79.887	-7.24391	168.195	-78.7165	-37.7695	163.432	-78.4461	-63.1828	153.078	-128.846	-39.8196	159.381	-111.457	-66.4306	151.969	-86.9574	-77.7991	133.789	-148.169	-39.211	140.338	-149.592	-70.4356	139.231	-143.731	-97.6812	109.798	-143.781	-30.6313	108.818	-154.822	-58.6718	113.548	-155.483	-86.0043	84.7281	-133.85	-22.9501	75.8107	-141.408	-41.6085	64.8594	-147.488	-63.1845	106.184	-132.437	17.0388	98.943	-120.22	44.0694	134.819	-120.399	33.2218	
139	1.15833	160.474	-77.0043	27.9169	169.075	-72.4553	-5.29179	180.038	-67.5792	-33.9663	173.679	-71.1707	-56.37	180.541	-118.664	-32.8623	181.676	-102.031	-60.868	172.305	-81.2116	-73.1054	162.326	-142.951	-32.5958	169.921	-145.451	-64.1554	170.566	-140.256	-93.3275	139.72	-142.301	-27.5677	141.737	-153.418	-51.8469	146.365	-156.341	-83.0128	107.306	-138.504	-22.0307	104.762	-147.767	-38.6673	98.1698	-157.557	-62.5517	127.554	-129.914	19.1672	116.193	-119.311	46.4706	150.799	-114.451	36.5227	
140	1.16667	167.226	-62.5061	25.7336	175.728	-49.9178	-4.89671	181.254	-46.6813	-31.8435	179.656	-53.602	-57.876	197.113	-98.0187	-28.1908	193.302	-84.0975	-60.2159	180.865	-62.1457	-73.5818	186.351	-125.062	-27.952	198.034	-126.958	-60.0331	197.605	-124.363	-91.0797	163.745	-135.663	-27.2715	174.886	-141.621	-50.2749	177.745	-145.451	-80.7058	134.168	-133.137	-18.9427	135.38	-145.901	-37.1885	135.542	-158.736	-63.5096	142.531	-121.38	20.9265	133.267	-112.552	43.6778	168.815	-97.7943	37.4709	
141	1.175	165.64	-41.1018	25.6699	170.006	-35.2001	-10.0326	177.594	-27.1957	-37.9993	174.178	-35.7108	-60.3975	208.328	-70.1523	-32.2012	200.519	-62.6578	-59.7236	179.545	-48.6722	-75.0215	203.897	-102.824	-28.6855	217.908	-98.4351	-57.8214	217.941	-95.4887	-89.2442	191.115	-113.852	-27.0842	199.664	-121.935	-51.5761	206.106	-121.261	-75.1296	157.367	-126.39	-18.5887	165.244	-138.505	-40.5356	166.425	-148.365	-59.9379	167.459	-107.328	20.4354	147.9	-104.949	46.0662	176.389	-82.0179	35.8642	
142	1.18333	160.844	-29.081	18.6487	158.922	-19.0991	-12.2342	163.945	-14.4041	-42.271	163.115	-21.1465	-63.4083	208.059	-46.0067	-33.7128	198.513	-36.661	-61.0501	174.818	-31.8032	-77.9529	217.861	-73.0074	-31.5102	225.814	-70.2658	-58.2577	224.385	-63.6437	-95.3562	208.277	-91.7826	-28.8187	218.319	-91.8007	-48.0802	223.786	-92.6687	-80.9669	183.511	-111.499	-19.6144	193.656	-118.498	-37.4262	199.549	-131.237	-60.2436	179.564	-89.6955	22.1454	166.387	-94.8529	42.8345	185.053	-58.9928	35.2063	
143	1.19167	148.777	-23.0045	14.068	141.969	-14.2887	-15.7347	144.09	-6.99185	-47.9554	148.94	-12.8212	-71.9183	196.506	-19.2471	-36.5722	182.813	-16.1284	-69.0339	160.579	-25.6515	-83.7704	215.418	-41.4747	-34.215	222.991	-36.1227	-63.4845	219.23	-30.5666	-99.3383	211.454	-63.0889	-28.1066	226.18	-63.3948	-57.3905	229.635	-60.4217	-82.0088	197.857	-89.5204	-20.0476	210.596	-94.9099	-39.6492	222.886	-96.2341	-62.471	193.053	-67.4752	16.7526	172.459	-74.9851	43.5828	179.244	-39.8409	28.6454	
144	1.2	128.888	-19.1864	12.6909	120.912	-12.0504	-22.1391	121.69	-7.80585	-51.3273	123.637	-10.2179	-75.5353	173.828	2.84635	-47.6976	161.987	-3.14433	-77.5028	139.993	-15.4585	-89.1776	197	-10.2483	-41.1152	203.299	-3.72269	-72.9999	200.479	-0.667885	-104.119	206.365	-32.8027	-37.9631	216.133	-30.4328	-59.3912	222.541	-27.4183	-90.3126	204.053	-63.9376	-26.5969	218.542	-62.4302	-48.4484	226.639	-63.665	-64.9983	188.383	-44.786	8.41426	174.457	-55.5678	38.8252	169.337	-20.422	22.7172	
